<svg width="135" height="40" viewBox="0 0 135 40" fill="none" xmlns="http://www.w3.org/2000/svg">
<g clip-path="url(#clip0_2_414)">
<path d="M124.249 0.00013H10.7559C10.3422 0.00013 9.93347 0.00013 9.52087 0.00213C9.17548 0.00413 8.83285 0.00994 8.48415 0.01483C7.7266 0.0227318 6.97084 0.0818063 6.22343 0.19154C5.47707 0.303663 4.75408 0.515046 4.07894 0.81854C3.40461 1.1246 2.78846 1.5223 2.25284 1.9972C1.71441 2.47077 1.26558 3.01815 0.923624 3.61829C0.580721 4.21724 0.34295 4.85907 0.218525 5.52161C0.092917 6.18332 0.0253262 6.85265 0.0163592 7.52361C0.00588987 7.83021 0.00478427 8.13783 -0.000732422 8.44447V31.5587C0.00478427 31.8692 0.00588987 32.17 0.0163592 32.4806C0.025329 33.1516 0.0929198 33.8209 0.218525 34.4825C0.342607 35.1455 0.580391 35.7877 0.923624 36.3868C1.26543 36.985 1.71432 37.5302 2.25284 38.0011C2.78643 38.4781 3.40298 38.8761 4.07894 39.1798C4.75408 39.4841 5.47698 39.6968 6.22343 39.8106C6.97097 39.9195 7.72665 39.9786 8.48415 39.9874C8.83285 39.9942 9.17548 39.9981 9.52087 39.9981C9.93346 40.0001 10.3422 40.0001 10.7559 40.0001H124.249C124.654 40.0001 125.066 40.0001 125.472 39.9981C125.815 39.9981 126.168 39.9942 126.512 39.9874C127.268 39.9791 128.022 39.92 128.768 39.8106C129.517 39.696 130.242 39.4834 130.921 39.1798C131.596 38.8759 132.212 38.478 132.745 38.0011C133.282 37.5284 133.732 36.9836 134.078 36.3868C134.419 35.7872 134.654 35.1451 134.777 34.4825C134.902 33.8208 134.972 33.1516 134.986 32.4806C134.99 32.17 134.99 31.8692 134.99 31.5587C134.999 31.1954 134.999 30.8341 134.999 30.4649V9.53626C134.999 9.17005 134.999 8.80677 134.99 8.44447C134.99 8.13783 134.99 7.83021 134.986 7.52357C134.972 6.85255 134.902 6.18337 134.777 5.52157C134.654 4.85941 134.419 4.21763 134.078 3.61825C133.382 2.41533 132.278 1.43616 130.921 0.81845C130.242 0.515697 129.517 0.30437 128.768 0.19145C128.022 0.0812328 127.268 0.0221378 126.512 0.01469C126.168 0.00981 125.815 0.00395 125.472 0.002C125.066 0 124.654 0 124.249 0V0.00013Z" fill="#1D1D1D"/>
<path d="M9.42928 39.1281C9.08496 39.1281 8.74895 39.1242 8.40733 39.1174C7.69964 39.1092 6.9936 39.0547 6.29501 38.9543C5.6436 38.855 5.01257 38.6703 4.42271 38.4063C3.83827 38.1444 3.30521 37.8011 2.84396 37.3895C2.37602 36.9826 1.98645 36.5108 1.69067 35.9927C1.39163 35.4711 1.18468 34.9121 1.07702 34.3351C0.960762 33.7151 0.89786 33.0882 0.888859 32.4597C0.881694 32.2488 0.872314 31.5464 0.872314 31.5464V8.44104C0.872314 8.44104 0.882305 7.74948 0.888916 7.54631C0.897534 6.91886 0.96007 6.2929 1.07598 5.67385C1.18384 5.09525 1.39095 4.53463 1.69015 4.0114C1.98484 3.49361 2.37225 3.02143 2.83737 2.61316C3.30196 2.20102 3.83672 1.85593 4.42216 1.59048C5.01066 1.32731 5.6405 1.14391 6.29059 1.04642C6.99148 0.944969 7.69997 0.890117 8.41011 0.88233L9.42983 0.870117H125.569L126.601 0.88282C127.305 0.890221 128.007 0.944583 128.701 1.04544C129.358 1.14415 129.994 1.32883 130.59 1.59341C131.762 2.12837 132.717 2.97472 133.319 4.01384C133.613 4.53346 133.817 5.08951 133.924 5.66311C134.041 6.28724 134.107 6.91812 134.12 7.55071C134.123 7.83397 134.123 8.13824 134.123 8.44104C134.132 8.81612 134.132 9.17312 134.132 9.53306V30.4661C134.132 30.8295 134.132 31.1841 134.123 31.5415C134.123 31.8668 134.123 32.1648 134.119 32.4714C134.106 33.0927 134.041 33.7123 133.926 34.3253C133.82 34.9065 133.615 35.4699 133.316 35.9957C133.018 36.5082 132.63 36.9759 132.168 37.3816C131.706 37.7955 131.172 38.1409 130.586 38.4044C129.993 38.6704 129.357 38.8558 128.701 38.9543C128.003 39.0553 127.297 39.1098 126.589 39.1174C126.258 39.1242 125.911 39.1281 125.575 39.1281L124.35 39.1301L9.42928 39.1281Z" fill="black"/>
<path d="M32.7966 20.3008C32.8073 19.4662 33.029 18.6478 33.4411 17.9218C33.8531 17.1959 34.442 16.5859 35.1531 16.1488C34.7014 15.5036 34.1055 14.9727 33.4126 14.5981C32.7198 14.2236 31.9492 14.0157 31.162 13.9911C29.4827 13.8148 27.8548 14.9959 26.9991 14.9959C26.1268 14.9959 24.8093 14.0086 23.3906 14.0378C22.4729 14.0674 21.5786 14.3343 20.7947 14.8123C20.0108 15.2904 19.3641 15.9633 18.9177 16.7656C16.9837 20.1141 18.4262 25.0351 20.2789 27.7417C21.2058 29.0671 22.289 30.5475 23.7065 30.495C25.0935 30.4375 25.6116 29.6105 27.2859 29.6105C28.9446 29.6105 29.4307 30.495 30.8769 30.4616C32.3653 30.4375 33.303 29.1304 34.1974 27.7925C34.8634 26.8481 35.3758 25.8044 35.7158 24.7C34.8511 24.3343 34.1132 23.7221 33.5941 22.9398C33.0749 22.1575 32.7976 21.2397 32.7966 20.3008Z" fill="white"/>
<path d="M30.0649 12.2108C30.8764 11.2366 31.2763 9.98445 31.1794 8.72021C29.9396 8.85044 28.7943 9.44299 27.9719 10.3798C27.5697 10.8375 27.2617 11.3699 27.0655 11.9467C26.8692 12.5235 26.7886 13.1333 26.8281 13.7412C27.4483 13.7476 28.0618 13.6132 28.6225 13.3481C29.1831 13.083 29.6763 12.6942 30.0649 12.2108Z" fill="white"/>
<path d="M50.3298 27.1397H45.5964L44.4597 30.4961H42.4548L46.9382 18.0781H49.0212L53.5046 30.4961H51.4656L50.3298 27.1397ZM46.0867 25.5908H49.8387L47.9891 20.1436H47.9373L46.0867 25.5908Z" fill="white"/>
<path d="M63.1873 25.9699C63.1873 28.7834 61.6814 30.591 59.409 30.591C58.8333 30.6211 58.2608 30.4885 57.757 30.2084C57.2532 29.9283 56.8385 29.5119 56.5603 29.007H56.5173V33.4914H54.6589V21.4426H56.4578V22.9484H56.492C56.7829 22.446 57.2047 22.0318 57.7123 21.7499C58.2199 21.4681 58.7945 21.3291 59.3748 21.3479C61.6726 21.3479 63.1873 23.1643 63.1873 25.9699ZM61.2771 25.9699C61.2771 24.1369 60.3299 22.9319 58.8845 22.9319C57.4646 22.9319 56.5095 24.1623 56.5095 25.9699C56.5095 27.7942 57.4646 29.0158 58.8845 29.0158C60.3299 29.0158 61.2771 27.8195 61.2771 25.9699Z" fill="white"/>
<path d="M73.1521 25.9699C73.1521 28.7834 71.6463 30.591 69.3738 30.591C68.7982 30.6211 68.2257 30.4885 67.7219 30.2084C67.2181 29.9283 66.8033 29.5119 66.5252 29.007H66.4822V33.4914H64.6238V21.4426H66.4226V22.9484H66.4568C66.7477 22.446 67.1695 22.0318 67.6771 21.7499C68.1847 21.4681 68.7593 21.3291 69.3396 21.3479C71.6375 21.3479 73.1521 23.1643 73.1521 25.9699ZM71.242 25.9699C71.242 24.1369 70.2947 22.9318 68.8494 22.9318C67.4295 22.9318 66.4744 24.1623 66.4744 25.9699C66.4744 27.7942 67.4295 29.0158 68.8494 29.0158C70.2947 29.0158 71.242 27.8195 71.242 25.9699H71.242Z" fill="white"/>
<path d="M79.7381 27.0362C79.8758 28.2676 81.0721 29.0762 82.7068 29.0762C84.2732 29.0762 85.4002 28.2676 85.4002 27.1572C85.4002 26.1934 84.7205 25.6162 83.1111 25.2207L81.5017 24.833C79.2215 24.2822 78.1629 23.2158 78.1629 21.4854C78.1629 19.3428 80.0301 17.8711 82.6814 17.8711C85.3054 17.8711 87.1043 19.3428 87.1648 21.4854H85.2888C85.1765 20.2461 84.1521 19.4981 82.655 19.4981C81.158 19.4981 80.1336 20.2549 80.1336 21.3565C80.1336 22.2344 80.7879 22.751 82.3884 23.1465L83.7566 23.4824C86.3044 24.0849 87.363 25.1084 87.363 26.9248C87.363 29.248 85.5125 30.7031 82.5691 30.7031C79.8152 30.7031 77.9558 29.2822 77.8357 27.0361L79.7381 27.0362Z" fill="white"/>
<path d="M91.3738 19.2998V21.4424H93.0955V22.9141H91.3738V27.9053C91.3738 28.6807 91.7185 29.042 92.4753 29.042C92.6797 29.0384 92.8838 29.0241 93.0867 28.999V30.4619C92.7464 30.5255 92.4005 30.5543 92.0544 30.5478C90.2214 30.5478 89.5066 29.8593 89.5066 28.1035V22.9141H88.1902V21.4424H89.5066V19.2998H91.3738Z" fill="white"/>
<path d="M94.0925 25.9697C94.0925 23.1211 95.7703 21.3311 98.3865 21.3311C101.011 21.3311 102.681 23.1211 102.681 25.9697C102.681 28.8262 101.02 30.6084 98.3865 30.6084C95.7536 30.6084 94.0925 28.8262 94.0925 25.9697ZM100.788 25.9697C100.788 24.0156 99.8923 22.8623 98.3865 22.8623C96.8806 22.8623 95.9861 24.0244 95.9861 25.9697C95.9861 27.9316 96.8806 29.0762 98.3865 29.0762C99.8923 29.0762 100.788 27.9316 100.788 25.9697H100.788Z" fill="white"/>
<path d="M104.214 21.4425H105.986V22.9835H106.029C106.149 22.5022 106.431 22.0769 106.828 21.779C107.224 21.4811 107.711 21.3288 108.207 21.3478C108.421 21.347 108.635 21.3703 108.844 21.4171V23.1554C108.573 23.0728 108.291 23.0348 108.009 23.0431C107.739 23.0321 107.469 23.0797 107.22 23.1826C106.97 23.2855 106.745 23.4412 106.561 23.6391C106.377 23.837 106.238 24.0724 106.154 24.3291C106.069 24.5857 106.041 24.8576 106.072 25.1261V30.4962H104.214L104.214 21.4425Z" fill="white"/>
<path d="M117.412 27.8369C117.162 29.4805 115.561 30.6084 113.513 30.6084C110.88 30.6084 109.245 28.8437 109.245 26.0127C109.245 23.1729 110.888 21.3311 113.435 21.3311C115.94 21.3311 117.515 23.0518 117.515 25.7969V26.4336H111.121V26.5459C111.091 26.8791 111.133 27.2148 111.243 27.5306C111.353 27.8464 111.53 28.1352 111.76 28.3778C111.99 28.6203 112.27 28.8111 112.579 28.9374C112.889 29.0637 113.222 29.1226 113.556 29.1103C113.996 29.1515 114.436 29.0498 114.813 28.8203C115.19 28.5909 115.482 28.246 115.647 27.8369L117.412 27.8369ZM111.13 25.1348H115.656C115.673 24.8352 115.627 24.5354 115.523 24.2541C115.418 23.9729 115.256 23.7164 115.048 23.5006C114.839 23.2849 114.588 23.1145 114.311 23.0003C114.033 22.8861 113.735 22.8305 113.435 22.8369C113.133 22.8351 112.833 22.8933 112.553 23.008C112.273 23.1227 112.018 23.2918 111.804 23.5054C111.589 23.7191 111.419 23.973 111.304 24.2527C111.188 24.5323 111.129 24.8321 111.13 25.1348V25.1348Z" fill="white"/>
<path d="M45.8538 8.73089C46.2434 8.70293 46.6343 8.76179 46.9984 8.90323C47.3626 9.04466 47.6907 9.26514 47.9593 9.54876C48.2279 9.83239 48.4302 10.1721 48.5516 10.5434C48.673 10.9146 48.7105 11.3082 48.6614 11.6957C48.6614 13.602 47.6311 14.6977 45.8538 14.6977H43.6985V8.73089H45.8538ZM44.6252 13.8539H45.7502C46.0286 13.8705 46.3073 13.8249 46.5658 13.7203C46.8243 13.6157 47.0563 13.4547 47.2448 13.2491C47.4333 13.0436 47.5736 12.7986 47.6554 12.532C47.7373 12.2653 47.7587 11.9838 47.718 11.7079C47.7557 11.4331 47.7322 11.1533 47.6491 10.8886C47.5659 10.624 47.4253 10.381 47.2372 10.177C47.0492 9.9731 46.8183 9.81329 46.5613 9.70905C46.3042 9.60481 46.0272 9.55873 45.7502 9.5741H44.6252V13.8539Z" fill="white"/>
<path d="M49.7083 12.4443C49.68 12.1484 49.7138 11.8498 49.8077 11.5677C49.9015 11.2857 50.0533 11.0263 50.2532 10.8063C50.4532 10.5864 50.6969 10.4106 50.9687 10.2903C51.2406 10.17 51.5346 10.1079 51.8318 10.1079C52.1291 10.1079 52.4231 10.17 52.6949 10.2903C52.9668 10.4106 53.2105 10.5864 53.4104 10.8063C53.6104 11.0263 53.7621 11.2857 53.856 11.5677C53.9498 11.8498 53.9837 12.1484 53.9554 12.4443C53.9842 12.7405 53.9508 13.0395 53.8572 13.322C53.7636 13.6045 53.6119 13.8644 53.4119 14.0848C53.2119 14.3052 52.968 14.4813 52.6959 14.6019C52.4238 14.7224 52.1294 14.7847 51.8318 14.7847C51.5342 14.7847 51.2399 14.7224 50.9677 14.6019C50.6956 14.4813 50.4517 14.3052 50.2517 14.0848C50.0517 13.8644 49.9001 13.6045 49.8065 13.322C49.7129 13.0395 49.6794 12.7405 49.7083 12.4443ZM53.0413 12.4443C53.0413 11.4682 52.6028 10.8974 51.8333 10.8974C51.0608 10.8974 50.6263 11.4682 50.6263 12.4443C50.6263 13.4282 51.0609 13.9946 51.8333 13.9946C52.6028 13.9946 53.0413 13.4243 53.0413 12.4443H53.0413Z" fill="white"/>
<path d="M59.6008 14.6978H58.679L57.7483 11.3813H57.678L56.7512 14.6978H55.8381L54.5969 10.1948H55.4983L56.3049 13.6308H56.3713L57.2971 10.1948H58.1497L59.0754 13.6308H59.1458L59.9485 10.1948H60.8372L59.6008 14.6978Z" fill="white"/>
<path d="M61.8811 10.1949H62.7366V10.9102H62.803C62.9156 10.6533 63.1056 10.4379 63.3465 10.2941C63.5874 10.1503 63.8671 10.0852 64.1467 10.1079C64.3658 10.0915 64.5858 10.1245 64.7904 10.2046C64.995 10.2847 65.179 10.4098 65.3287 10.5707C65.4784 10.7315 65.5899 10.924 65.6551 11.1338C65.7203 11.3436 65.7375 11.5654 65.7053 11.7827V14.6977H64.8167V12.0059C64.8167 11.2823 64.5022 10.9224 63.845 10.9224C63.6962 10.9155 63.5477 10.9408 63.4097 10.9966C63.2716 11.0525 63.1473 11.1375 63.0451 11.2459C62.943 11.3543 62.8655 11.4834 62.818 11.6246C62.7705 11.7657 62.754 11.9154 62.7698 12.0635V14.6978H61.8811L61.8811 10.1949Z" fill="white"/>
<path d="M67.1213 8.43701H68.01V14.6978H67.1213V8.43701Z" fill="white"/>
<path d="M69.2454 12.4444C69.2171 12.1484 69.251 11.8499 69.3448 11.5678C69.4387 11.2857 69.5905 11.0263 69.7904 10.8064C69.9904 10.5864 70.2341 10.4106 70.506 10.2903C70.7779 10.17 71.0719 10.1079 71.3692 10.1079C71.6664 10.1079 71.9605 10.17 72.2323 10.2903C72.5042 10.4106 72.7479 10.5864 72.9479 10.8064C73.1478 11.0263 73.2996 11.2857 73.3935 11.5678C73.4874 11.8499 73.5212 12.1484 73.4929 12.4444C73.5217 12.7406 73.4883 13.0396 73.3946 13.3221C73.301 13.6046 73.1493 13.8645 72.9493 14.0849C72.7493 14.3053 72.5054 14.4814 72.2333 14.6019C71.9611 14.7225 71.6668 14.7847 71.3692 14.7847C71.0715 14.7847 70.7772 14.7225 70.505 14.6019C70.2329 14.4814 69.989 14.3053 69.789 14.0849C69.589 13.8645 69.4373 13.6046 69.3437 13.3221C69.25 13.0396 69.2166 12.7406 69.2454 12.4444ZM72.5784 12.4444C72.5784 11.4683 72.1399 10.8975 71.3704 10.8975C70.5979 10.8975 70.1634 11.4683 70.1634 12.4444C70.1634 13.4283 70.5979 13.9947 71.3704 13.9947C72.1399 13.9947 72.5784 13.4244 72.5784 12.4444H72.5784Z" fill="white"/>
<path d="M74.4285 13.4243C74.4285 12.6138 75.032 12.1465 76.1033 12.0801L77.323 12.0098V11.6211C77.323 11.1455 77.0085 10.877 76.4011 10.877C75.905 10.877 75.5613 11.0591 75.4626 11.3774H74.6023C74.6931 10.604 75.4207 10.1079 76.4421 10.1079C77.571 10.1079 78.2078 10.6699 78.2078 11.6211V14.6977H77.3523V14.0649H77.282C77.1393 14.2919 76.9389 14.477 76.7012 14.6012C76.4636 14.7254 76.1973 14.7843 75.9294 14.7719C75.7404 14.7916 75.5494 14.7714 75.3686 14.7127C75.1878 14.654 75.0214 14.5581 74.88 14.4311C74.7385 14.3042 74.6253 14.149 74.5475 13.9756C74.4698 13.8021 74.4292 13.6144 74.4285 13.4243ZM77.323 13.0395V12.6631L76.2234 12.7334C75.6033 12.7749 75.322 12.9858 75.322 13.3828C75.322 13.7881 75.6736 14.0239 76.157 14.0239C76.2987 14.0382 76.4417 14.0239 76.5777 13.9819C76.7137 13.9398 76.8399 13.8707 76.9487 13.7789C77.0575 13.6871 77.1467 13.5743 77.211 13.4473C77.2753 13.3202 77.3134 13.1816 77.323 13.0395Z" fill="white"/>
<path d="M79.3757 12.4444C79.3757 11.0215 80.1072 10.1201 81.2449 10.1201C81.5263 10.1072 81.8056 10.1746 82.0501 10.3145C82.2946 10.4544 82.4943 10.661 82.6257 10.9101H82.6922V8.43701H83.5808V14.6978H82.7293V13.9863H82.6589C82.5173 14.2338 82.3107 14.4378 82.0615 14.5763C81.8122 14.7148 81.5298 14.7825 81.2449 14.772C80.0994 14.772 79.3757 13.8706 79.3757 12.4444ZM80.2937 12.4444C80.2937 13.3994 80.7439 13.9741 81.4969 13.9741C82.2459 13.9741 82.7088 13.3911 82.7088 12.4483C82.7088 11.5098 82.241 10.9185 81.4969 10.9185C80.7488 10.9185 80.2937 11.4971 80.2937 12.4444H80.2937Z" fill="white"/>
<path d="M87.2576 12.4443C87.2293 12.1484 87.2631 11.8498 87.357 11.5677C87.4508 11.2857 87.6026 11.0263 87.8025 10.8063C88.0025 10.5864 88.2462 10.4106 88.518 10.2903C88.7899 10.17 89.0839 10.1079 89.3811 10.1079C89.6784 10.1079 89.9724 10.17 90.2442 10.2903C90.5161 10.4106 90.7598 10.5864 90.9597 10.8063C91.1597 11.0263 91.3114 11.2857 91.4053 11.5677C91.4991 11.8498 91.533 12.1484 91.5047 12.4443C91.5335 12.7405 91.5001 13.0395 91.4065 13.322C91.3129 13.6045 91.1612 13.8644 90.9612 14.0848C90.7612 14.3052 90.5173 14.4813 90.2452 14.6019C89.9731 14.7224 89.6788 14.7847 89.3811 14.7847C89.0835 14.7847 88.7892 14.7224 88.5171 14.6019C88.2449 14.4813 88.001 14.3052 87.801 14.0848C87.6011 13.8644 87.4494 13.6045 87.3558 13.322C87.2622 13.0395 87.2288 12.7405 87.2576 12.4443ZM90.5906 12.4443C90.5906 11.4682 90.1521 10.8974 89.3826 10.8974C88.6101 10.8974 88.1756 11.4682 88.1756 12.4443C88.1756 13.4282 88.6102 13.9946 89.3826 13.9946C90.1521 13.9946 90.5906 13.4243 90.5906 12.4443Z" fill="white"/>
<path d="M92.697 10.1949H93.5525V10.9102H93.6189C93.7316 10.6533 93.9216 10.4379 94.1624 10.2941C94.4033 10.1503 94.683 10.0852 94.9627 10.1079C95.1818 10.0915 95.4018 10.1245 95.6063 10.2046C95.8109 10.2847 95.9949 10.4098 96.1446 10.5707C96.2943 10.7315 96.4058 10.924 96.4711 11.1338C96.5363 11.3436 96.5534 11.5654 96.5212 11.7827V14.6977H95.6326V12.0059C95.6326 11.2823 95.3181 10.9224 94.6609 10.9224C94.5121 10.9155 94.3636 10.9408 94.2256 10.9966C94.0875 11.0525 93.9632 11.1375 93.861 11.2459C93.7589 11.3543 93.6814 11.4834 93.6339 11.6246C93.5864 11.7657 93.5699 11.9154 93.5857 12.0635V14.6978H92.697V10.1949Z" fill="white"/>
<path d="M101.543 9.07373V10.2153H102.518V10.9639H101.543V13.2793C101.543 13.751 101.737 13.9575 102.179 13.9575C102.293 13.9572 102.406 13.9503 102.518 13.937V14.6772C102.359 14.7058 102.197 14.721 102.035 14.7226C101.047 14.7226 100.653 14.375 100.653 13.5068V10.9638H99.9382V10.2153H100.653V9.07373H101.543Z" fill="white"/>
<path d="M103.732 8.43701H104.613V10.9185H104.683C104.801 10.6591 104.997 10.4425 105.242 10.2982C105.488 10.1539 105.772 10.0888 106.056 10.1118C106.274 10.1 106.492 10.1364 106.694 10.2184C106.897 10.3004 107.078 10.4261 107.227 10.5864C107.375 10.7468 107.486 10.9378 107.551 11.146C107.617 11.3541 107.636 11.5742 107.607 11.7905V14.6978H106.718V12.0098C106.718 11.2905 106.383 10.9263 105.755 10.9263C105.602 10.9137 105.448 10.9347 105.305 10.9878C105.161 11.0408 105.03 11.1247 104.922 11.2334C104.814 11.3421 104.731 11.4732 104.679 11.6173C104.627 11.7614 104.607 11.9152 104.621 12.0679V14.6977H103.732L103.732 8.43701Z" fill="white"/>
<path d="M112.789 13.482C112.668 13.8935 112.406 14.2495 112.05 14.4877C111.693 14.7258 111.264 14.831 110.838 14.7847C110.541 14.7926 110.246 14.7357 109.974 14.6182C109.701 14.5007 109.457 14.3253 109.26 14.1041C109.062 13.883 108.914 13.6214 108.827 13.3376C108.741 13.0538 108.717 12.7545 108.757 12.4605C108.718 12.1656 108.742 11.8657 108.829 11.581C108.915 11.2964 109.062 11.0336 109.259 10.8105C109.456 10.5874 109.698 10.4093 109.97 10.2881C110.242 10.1669 110.536 10.1054 110.834 10.108C112.087 10.108 112.842 10.964 112.842 12.378V12.6881H109.663V12.7379C109.649 12.9031 109.67 13.0695 109.724 13.2262C109.778 13.383 109.864 13.5267 109.977 13.6481C110.09 13.7696 110.227 13.8661 110.379 13.9315C110.532 13.9969 110.696 14.0297 110.862 14.0279C111.075 14.0534 111.29 14.0151 111.481 13.9179C111.671 13.8207 111.829 13.669 111.933 13.482L112.789 13.482ZM109.663 12.0308H111.937C111.948 11.8797 111.928 11.7279 111.877 11.5852C111.826 11.4425 111.746 11.312 111.641 11.2021C111.537 11.0923 111.411 11.0055 111.271 10.9473C111.131 10.8891 110.98 10.8609 110.829 10.8643C110.675 10.8624 110.523 10.8913 110.38 10.9492C110.238 11.0072 110.108 11.093 110 11.2017C109.891 11.3104 109.805 11.4398 109.747 11.5822C109.69 11.7246 109.661 11.8771 109.663 12.0308H109.663Z" fill="white"/>
</g>
<defs>
<clipPath id="clip0_2_414">
<rect width="135" height="40" fill="white" transform="translate(-0.000732422)"/>
</clipPath>
</defs>
</svg>
