<svg width="135" height="40" viewBox="0 0 135 40" fill="none" xmlns="http://www.w3.org/2000/svg">
<g clip-path="url(#clip0_2_393)">
<path d="M129.999 0H4.99998C2.23857 0 0 2.23857 0 4.99998V34.9998C0 37.7612 2.23857 39.9998 4.99998 39.9998H129.999C132.761 39.9998 134.999 37.7612 134.999 34.9998V4.99998C134.999 2.23857 132.761 0 129.999 0Z" fill="black"/>
<path d="M129.999 0.799796C131.113 0.801082 132.18 1.24402 132.968 2.03144C133.755 2.81886 134.198 3.88644 134.199 4.99998V34.9998C134.198 36.1134 133.755 37.1809 132.968 37.9683C132.18 38.7558 131.113 39.1987 129.999 39.2H4.99998C3.88643 39.1987 2.81887 38.7558 2.03149 37.9684C1.24411 37.181 0.801227 36.1134 0.799996 34.9998V4.99998C0.801208 3.88643 1.24409 2.81883 2.03147 2.03141C2.81885 1.24399 3.88643 0.801061 4.99998 0.799796H129.999ZM129.999 0H4.99998C3.67509 0.00387808 2.40558 0.531905 1.46874 1.46874C0.531905 2.40558 0.00387808 3.67509 0 4.99998L0 34.9998C0.00387808 36.3247 0.531905 37.5942 1.46874 38.5311C2.40558 39.4679 3.67509 39.9959 4.99998 39.9998H129.999C131.324 39.9959 132.594 39.4679 133.531 38.5311C134.467 37.5942 134.995 36.3247 134.999 34.9998V4.99998C134.995 3.67509 134.467 2.40558 133.531 1.46874C132.594 0.531905 131.324 0.00387808 129.999 0Z" fill="#1D1D1D"/>
<path d="M47.4182 10.2433C47.4364 10.6103 47.3797 10.9771 47.2516 11.3214C47.1235 11.6657 46.9267 11.9804 46.673 12.2462C46.3888 12.541 46.0456 12.7724 45.6658 12.9254C45.286 13.0783 44.8781 13.1494 44.469 13.1339C44.0572 13.1376 43.6488 13.0589 43.2679 12.9025C42.8869 12.7461 42.5411 12.5152 42.2507 12.2232C41.9603 11.9313 41.7312 11.5842 41.5768 11.2024C41.4225 10.8207 41.346 10.4119 41.3519 10.0001C41.346 9.58836 41.4225 9.17958 41.5769 8.7978C41.7313 8.41602 41.9604 8.06894 42.2508 7.77695C42.5412 7.48496 42.887 7.25395 43.2679 7.09748C43.6488 6.94102 44.0572 6.86226 44.469 6.86584C44.8923 6.86456 45.3115 6.95016 45.7005 7.11734C46.0617 7.26378 46.3833 7.49348 46.6389 7.78773L46.1116 8.31553C45.9106 8.07898 45.6579 7.89177 45.3731 7.76834C45.0883 7.64491 44.779 7.58856 44.469 7.60364C44.1569 7.60202 43.8477 7.66341 43.5599 7.78412C43.2721 7.90483 43.0116 8.08238 42.7941 8.30614C42.5765 8.5299 42.4064 8.79526 42.2938 9.08634C42.1812 9.37741 42.1286 9.68821 42.139 10.0001C42.1315 10.4673 42.263 10.9262 42.5167 11.3186C42.7704 11.711 43.1349 12.0192 43.564 12.2041C43.9931 12.3891 44.4674 12.4424 44.9269 12.3574C45.3863 12.2724 45.8102 12.0529 46.1448 11.7267C46.4526 11.395 46.6311 10.9636 46.6477 10.5113H44.469V9.79062H47.3762C47.4037 9.93997 47.4178 10.0915 47.4182 10.2433Z" fill="white" stroke="white" stroke-width="0.2" stroke-miterlimit="10"/>
<path d="M52.0275 7.7373H49.2952V9.63959H51.759V10.3604H49.2952V12.2627H52.0275V13H48.5247V7H52.0275V7.7373Z" fill="white" stroke="white" stroke-width="0.2" stroke-miterlimit="10"/>
<path d="M55.2783 13H54.5068V7.7373H52.8311V7H56.9541V7.7373H55.2783V13Z" fill="white" stroke="white" stroke-width="0.2" stroke-miterlimit="10"/>
<path d="M59.9377 13V7H60.7082V13H59.9377Z" fill="white" stroke="white" stroke-width="0.2" stroke-miterlimit="10"/>
<path d="M64.1281 13H63.3566V7.7373H61.6809V7H65.8039V7.7373H64.1281V13Z" fill="white" stroke="white" stroke-width="0.2" stroke-miterlimit="10"/>
<path d="M73.6089 12.2246C73.0249 12.8068 72.2339 13.1338 71.4092 13.1338C70.5846 13.1338 69.7935 12.8068 69.2095 12.2246C68.9206 11.932 68.6935 11.5842 68.5417 11.2021C68.3898 10.8199 68.3164 10.4111 68.3257 10C68.3164 9.58889 68.3898 9.1801 68.5417 8.79794C68.6935 8.41578 68.9206 8.06804 69.2095 7.77542C69.4982 7.48669 69.841 7.25772 70.2182 7.10162C70.5955 6.94552 70.9998 6.86536 71.4081 6.86572C71.8164 6.86609 72.2205 6.94697 72.5975 7.10373C72.9745 7.2605 73.3169 7.49007 73.605 7.77932C73.8941 8.07117 74.1217 8.41813 74.2742 8.7996C74.4267 9.18106 74.501 9.58927 74.4927 10C74.5018 10.4111 74.4282 10.8198 74.2764 11.2019C74.1246 11.5841 73.8976 11.9318 73.6089 12.2246ZM69.7788 11.7222C70.2114 12.154 70.7976 12.3965 71.4087 12.3965C72.0199 12.3965 72.6061 12.154 73.0386 11.7222C73.2604 11.4951 73.4339 11.2254 73.5485 10.9294C73.6631 10.6334 73.7166 10.3172 73.7056 10C73.7166 9.68277 73.6631 9.36659 73.5485 9.07059C73.4339 8.77459 73.2604 8.5049 73.0386 8.27782C72.6061 7.84602 72.0199 7.60351 71.4087 7.60351C70.7976 7.60351 70.2114 7.84602 69.7788 8.27782C69.5573 8.50508 69.3842 8.77482 69.2697 9.0708C69.1552 9.36677 69.1019 9.68286 69.1128 10C69.1019 10.3172 69.1552 10.6332 69.2697 10.9292C69.3842 11.2252 69.5573 11.4949 69.7788 11.7222Z" fill="white" stroke="white" stroke-width="0.2" stroke-miterlimit="10"/>
<path d="M75.5747 13V7H76.5132L79.4292 11.6675H79.4624L79.4292 10.5112V7H80.2007V13H79.396L76.3452 8.10639H76.312L76.3452 9.26269V13H75.5747Z" fill="white" stroke="white" stroke-width="0.2" stroke-miterlimit="10"/>
<path d="M68.1355 21.7514C67.295 21.7546 66.4743 22.0068 65.777 22.4761C65.0797 22.9453 64.537 23.6107 64.2176 24.3881C63.8982 25.1656 63.8162 26.0202 63.9822 26.8442C64.1481 27.6682 64.5544 28.4245 65.1499 29.0177C65.7454 29.6109 66.5032 30.0144 67.3278 30.1772C68.1524 30.34 69.0068 30.2548 69.783 29.9324C70.5592 29.61 71.2225 29.0649 71.6891 28.3658C72.1558 27.6667 72.4048 26.845 72.4048 26.0045C72.413 25.4423 72.3081 24.8842 72.0963 24.3634C71.8845 23.8426 71.57 23.3698 71.1717 22.973C70.7734 22.5762 70.2993 22.2635 69.7777 22.0537C69.2561 21.8438 68.6976 21.741 68.1355 21.7514ZM68.1355 28.5822C67.6179 28.6191 67.1011 28.4993 66.6525 28.2384C66.204 27.9776 65.8443 27.5876 65.6204 27.1195C65.3965 26.6513 65.3188 26.1266 65.3973 25.6137C65.4758 25.1007 65.7069 24.6233 66.0605 24.2435C66.4142 23.8637 66.874 23.5992 67.3801 23.4844C67.8861 23.3696 68.4151 23.4099 68.898 23.5999C69.3808 23.7899 69.7953 24.1209 70.0875 24.5498C70.3796 24.9787 70.5359 25.4856 70.5359 26.0045C70.5516 26.3324 70.5016 26.66 70.3887 26.9682C70.2759 27.2764 70.1025 27.559 69.8788 27.7992C69.6552 28.0394 69.3857 28.2324 69.0863 28.3669C68.7869 28.5013 68.4636 28.5746 68.1355 28.5822ZM58.8221 21.7514C57.9816 21.7546 57.1609 22.0067 56.4636 22.476C55.7663 22.9453 55.2236 23.6106 54.9042 24.3881C54.5847 25.1655 54.5028 26.0202 54.6687 26.8442C54.8346 27.6681 55.241 28.4245 55.8364 29.0177C56.4319 29.6109 57.1897 30.0144 58.0143 30.1772C58.8389 30.34 59.6933 30.2548 60.4695 29.9324C61.2457 29.61 61.909 29.0649 62.3757 28.3658C62.8423 27.6667 63.0913 26.845 63.0913 26.0045C63.0996 25.4424 62.9947 24.8843 62.7828 24.3635C62.571 23.8427 62.2566 23.3698 61.8583 22.973C61.46 22.5762 60.9859 22.2636 60.4643 22.0537C59.9427 21.8438 59.3843 21.7411 58.8221 21.7514ZM58.8221 28.5822C58.3045 28.6191 57.7878 28.4993 57.3392 28.2384C56.8906 27.9776 56.5309 27.5876 56.3071 27.1195C56.0832 26.6513 56.0054 26.1266 56.0839 25.6137C56.1624 25.1007 56.3935 24.6233 56.7472 24.2435C57.1008 23.8637 57.5606 23.5992 58.0667 23.4844C58.5728 23.3696 59.1017 23.4099 59.5846 23.5999C60.0675 23.7899 60.482 24.1209 60.7741 24.5498C61.0663 24.9787 61.2225 25.4856 61.2225 26.0045C61.2382 26.3324 61.1882 26.66 61.0754 26.9682C60.9625 27.2765 60.7892 27.559 60.5655 27.7992C60.3418 28.0394 60.0724 28.2324 59.7729 28.3669C59.4735 28.5013 59.1503 28.5746 58.8221 28.5822ZM47.7434 23.0564V24.8607H52.0611C51.9988 25.707 51.6525 26.5075 51.0783 27.1323C50.6456 27.5733 50.1253 27.9188 49.5509 28.1463C48.9764 28.3738 48.3607 28.4784 47.7434 28.4533C46.4814 28.4362 45.2768 27.9229 44.3904 27.0244C43.504 26.1259 43.0071 24.9146 43.0071 23.6524C43.0071 22.3903 43.504 21.1789 44.3904 20.2804C45.2768 19.382 46.4814 18.8686 47.7434 18.8516C48.9556 18.8357 50.1251 19.2989 50.9978 20.1403L52.2705 18.8677C51.675 18.2782 50.9679 17.8135 50.1905 17.5009C49.4131 17.1883 48.5812 17.034 47.7434 17.0472C46.8679 17.0344 45.9986 17.1958 45.186 17.5221C44.3735 17.8483 43.6339 18.3328 43.0102 18.9474C42.3866 19.562 41.8914 20.2945 41.5533 21.1022C41.2153 21.91 41.0413 22.7768 41.0413 23.6524C41.0413 24.528 41.2153 25.3949 41.5533 26.2026C41.8914 27.0103 42.3866 27.7428 43.0102 28.3574C43.6339 28.9721 44.3735 29.4566 45.186 29.7828C45.9986 30.109 46.8679 30.2704 47.7434 30.2577C48.5988 30.2932 49.4521 30.1463 50.2464 29.8269C51.0408 29.5075 51.7582 29.0228 52.351 28.405C53.4034 27.2563 53.9643 25.7412 53.9138 24.1841C53.9179 23.806 53.8855 23.4283 53.817 23.0564H47.7434ZM93.0515 24.4579C92.7959 23.6876 92.3093 23.0146 91.6579 22.5303C91.0065 22.0461 90.2218 21.7742 89.4105 21.7514C88.864 21.7548 88.3239 21.869 87.8228 22.087C87.3218 22.3051 86.8701 22.6225 86.4951 23.02C86.1202 23.4175 85.8297 23.887 85.6413 24.4C85.453 24.9129 85.3706 25.4588 85.3991 26.0045C85.3868 26.5637 85.4873 27.1196 85.6947 27.6391C85.902 28.1585 86.2119 28.6309 86.6059 29.0279C86.9999 29.4249 87.4699 29.7384 87.9877 29.9497C88.5056 30.161 89.0607 30.2657 89.62 30.2577C90.3206 30.2616 91.0113 30.0914 91.6299 29.7624C92.2485 29.4334 92.7757 28.9559 93.1642 28.3728L91.7143 27.4062C91.4971 27.7669 91.1898 28.065 90.8227 28.2712C90.4555 28.4773 90.0411 28.5845 89.62 28.5822C89.1867 28.5988 88.7584 28.4848 88.3907 28.255C88.023 28.0252 87.7328 27.6902 87.5578 27.2934L93.2449 24.9413L93.0515 24.4579ZM87.2518 25.8757C87.2318 25.5662 87.2737 25.2557 87.3751 24.9626C87.4765 24.6694 87.6353 24.3994 87.8423 24.1684C88.0494 23.9374 88.3004 23.7499 88.5807 23.6171C88.861 23.4843 89.165 23.4087 89.4749 23.3947C89.7976 23.3735 90.1194 23.4477 90.4001 23.6082C90.6809 23.7686 90.9082 24.0081 91.0538 24.2969L87.2518 25.8757ZM82.628 29.9999H84.4968V17.4984H82.628V29.9999ZM79.567 22.7019H79.5026C79.2185 22.3932 78.8718 22.1488 78.4856 21.9849C78.0994 21.8209 77.6827 21.7414 77.2633 21.7514C76.1666 21.7981 75.1303 22.2666 74.3708 23.0591C73.6113 23.8516 73.1873 24.9069 73.1873 26.0046C73.1873 27.1023 73.6113 28.1575 74.3708 28.95C75.1303 29.7425 76.1666 30.211 77.2633 30.2577C77.6843 30.2689 78.1028 30.1882 78.4895 30.0213C78.8763 29.8544 79.222 29.6052 79.5026 29.2911H79.567V29.9033C79.567 31.5305 78.6971 32.4004 77.2954 32.4004C76.8283 32.3892 76.3751 32.2392 75.9935 31.9695C75.6119 31.6998 75.3193 31.3226 75.1529 30.886L73.5257 31.5627C73.8323 32.3094 74.355 32.9475 75.0266 33.3952C75.6982 33.843 76.4883 34.08 77.2954 34.0759C79.4865 34.0759 81.3392 32.7871 81.3392 29.6455V22.0091H79.567V22.7019ZM77.4244 28.5822C76.7785 28.5274 76.1767 28.2321 75.7381 27.7548C75.2995 27.2774 75.0561 26.6528 75.0561 26.0046C75.0561 25.3563 75.2995 24.7317 75.7381 24.2543C76.1767 23.777 76.7785 23.4817 77.4244 23.4269C77.7458 23.4426 78.0607 23.5229 78.3504 23.6628C78.6401 23.8028 78.8986 23.9997 79.1106 24.2418C79.3226 24.4838 79.4836 24.766 79.5842 25.0716C79.6848 25.3773 79.7228 25.7 79.6959 26.0206C79.7211 26.3392 79.6817 26.6597 79.5801 26.9627C79.4785 27.2658 79.3169 27.5452 79.1048 27.7844C78.8928 28.0235 78.6347 28.2174 78.3459 28.3545C78.0572 28.4916 77.7438 28.569 77.4244 28.5822ZM101.805 17.4986H97.3342V29.9999H99.1998V25.2635H101.805C102.333 25.2925 102.861 25.2135 103.357 25.0314C103.854 24.8494 104.307 24.5681 104.691 24.2047C105.075 23.8414 105.381 23.4036 105.59 22.9181C105.799 22.4326 105.906 21.9096 105.906 21.381C105.906 20.8525 105.799 20.3295 105.59 19.844C105.381 19.3585 105.075 18.9207 104.691 18.5573C104.307 18.194 103.854 17.9127 103.357 17.7306C102.861 17.5486 102.333 17.4696 101.805 17.4986ZM101.854 23.5237H99.1998V19.2385H101.854C102.139 19.2325 102.422 19.2836 102.687 19.3886C102.952 19.4936 103.194 19.6505 103.398 19.8501C103.601 20.0496 103.763 20.2878 103.874 20.5507C103.984 20.8136 104.041 21.0959 104.041 21.3811C104.041 21.6663 103.984 21.9486 103.874 22.2115C103.763 22.4744 103.601 22.7126 103.398 22.9121C103.194 23.1117 102.952 23.2685 102.687 23.3736C102.422 23.4786 102.139 23.5296 101.854 23.5237ZM113.385 21.7284C112.704 21.6887 112.026 21.8486 111.435 22.1886C110.844 22.5286 110.364 23.0338 110.056 23.6423L111.712 24.3339C111.877 24.0319 112.125 23.7843 112.428 23.6215C112.731 23.4587 113.075 23.3876 113.417 23.4171C113.891 23.3709 114.363 23.5143 114.731 23.8157C115.099 24.1172 115.332 24.5522 115.379 25.0254V25.1541C114.78 24.8358 114.112 24.6701 113.433 24.6716C111.648 24.6716 109.831 25.6527 109.831 27.4862C109.848 27.8726 109.943 28.2516 110.11 28.6007C110.276 28.9497 110.511 29.2618 110.801 29.5183C111.09 29.7748 111.428 29.9706 111.795 30.0939C112.161 30.2173 112.549 30.2657 112.935 30.2364C113.405 30.2641 113.873 30.1652 114.292 29.9503C114.711 29.7353 115.064 29.412 115.315 29.0141H115.379V29.9791H117.181V25.1863C117.181 22.9668 115.524 21.7284 113.385 21.7284ZM113.16 28.5798C112.549 28.5798 111.696 28.2743 111.696 27.5183C111.696 26.5534 112.758 26.1834 113.675 26.1834C114.27 26.1676 114.859 26.312 115.379 26.6016C115.311 27.1439 115.048 27.6429 114.64 28.0066C114.232 28.3702 113.706 28.5739 113.16 28.5798ZM123.743 22.0018L121.604 27.4218H121.539L119.32 22.0018H117.309L120.639 29.577L118.741 33.7908H120.687L125.817 22.0018H123.743ZM106.936 29.9999H108.801V17.4986H106.936V29.9999Z" fill="white"/>
<path d="M10.4352 7.53793C10.1073 7.93 9.9417 8.43262 9.97238 8.94282V31.0588C9.94161 31.569 10.1072 32.0717 10.4352 32.4637L10.5092 32.5358L22.8981 20.147V19.8547L10.5092 7.46533L10.4352 7.53793Z" fill="url(#paint0_linear_2_393)"/>
<path d="M27.0276 24.2787L22.8982 20.1473V19.855L27.0286 15.7246L27.1217 15.7777L32.0144 18.5578C33.412 19.3518 33.412 20.651 32.0144 21.4455L27.1217 24.2256L27.0276 24.2787Z" fill="url(#paint1_linear_2_393)"/>
<path d="M27.1217 24.2249L22.8982 20.001L10.4353 32.4638C10.7201 32.715 11.0837 32.8586 11.4633 32.8698C11.8428 32.881 12.2143 32.7591 12.5134 32.5252L27.1217 24.2249Z" fill="url(#paint2_linear_2_393)"/>
<path d="M27.1217 15.777L12.5134 7.47666C12.2143 7.24275 11.8428 7.12084 11.4633 7.13206C11.0837 7.14327 10.7201 7.2869 10.4353 7.53805L22.8982 20.001L27.1217 15.777Z" fill="url(#paint3_linear_2_393)"/>
<path opacity="0.2" d="M27.0286 24.1318L12.5134 32.3791C12.2258 32.598 11.8748 32.7175 11.5134 32.7194C11.152 32.7213 10.7997 32.6056 10.5098 32.3898L10.4353 32.4643L10.5093 32.5364L10.5098 32.5359C10.7997 32.7519 11.1519 32.8676 11.5134 32.8657C11.8748 32.8638 12.2259 32.7442 12.5134 32.5252L27.1217 24.2248L27.0286 24.1318Z" fill="#1D1D1D"/>
<path opacity="0.12" d="M10.4352 32.3185C10.1073 31.9264 9.94171 31.4238 9.97236 30.9136V31.0597C9.94169 31.5699 10.1073 32.0725 10.4352 32.4646L10.5097 32.3901L10.4352 32.3185Z" fill="#1D1D1D"/>
<path opacity="0.12" d="M32.0144 21.2988L27.0286 24.1319L27.1217 24.2249L32.0144 21.4449C32.3022 21.32 32.5513 21.1202 32.7357 20.8663C32.9201 20.6124 33.033 20.3138 33.0627 20.0015C33.0009 20.2843 32.8739 20.5488 32.6919 20.774C32.51 20.9992 32.278 21.1789 32.0144 21.2988Z" fill="#1D1D1D"/>
<path opacity="0.25" d="M12.5133 7.62334L32.0144 18.7033C32.2781 18.8231 32.5101 19.0029 32.6921 19.2282C32.8741 19.4535 33.001 19.7181 33.0627 20.0011C33.0332 19.6886 32.9203 19.3898 32.7359 19.1358C32.5515 18.8819 32.3024 18.682 32.0144 18.5572L12.5133 7.47724C11.1157 6.68315 9.97241 7.34274 9.97241 8.94353V9.08963C9.97241 7.48894 11.1157 6.82934 12.5133 7.62334Z" fill="white"/>
</g>
<defs>
<linearGradient id="paint0_linear_2_393" x1="21.7995" y1="8.70964" x2="5.01714" y2="25.492" gradientUnits="userSpaceOnUse">
<stop stop-color="#00A0FF"/>
<stop offset="0.00657" stop-color="#00A1FF"/>
<stop offset="0.2601" stop-color="#00BEFF"/>
<stop offset="0.5122" stop-color="#00D2FF"/>
<stop offset="0.7604" stop-color="#00DFFF"/>
<stop offset="1" stop-color="#00E3FF"/>
</linearGradient>
<linearGradient id="paint1_linear_2_393" x1="33.8341" y1="20.0016" x2="9.63734" y2="20.0016" gradientUnits="userSpaceOnUse">
<stop stop-color="#FFE000"/>
<stop offset="0.4087" stop-color="#FFBD00"/>
<stop offset="0.7754" stop-color="#FFA500"/>
<stop offset="1" stop-color="#FF9C00"/>
</linearGradient>
<linearGradient id="paint2_linear_2_393" x1="24.8268" y1="22.2961" x2="2.06861" y2="45.0542" gradientUnits="userSpaceOnUse">
<stop stop-color="#FF3A44"/>
<stop offset="1" stop-color="#C31162"/>
</linearGradient>
<linearGradient id="paint3_linear_2_393" x1="7.29725" y1="0.176272" x2="17.4597" y2="10.3387" gradientUnits="userSpaceOnUse">
<stop stop-color="#32A071"/>
<stop offset="0.0685" stop-color="#2DA771"/>
<stop offset="0.4762" stop-color="#15CF74"/>
<stop offset="0.8009" stop-color="#06E775"/>
<stop offset="1" stop-color="#00F076"/>
</linearGradient>
<clipPath id="clip0_2_393">
<rect width="134.999" height="40" fill="white"/>
</clipPath>
</defs>
</svg>
